<?xml version="1.0" encoding="UTF-8" standalone="no"?>
<svg xmlns="http://www.w3.org/2000/svg" xmlns:xlink="http://www.w3.org/1999/xlink" style="isolation:isolate" viewBox="537.5 212.002 507 185.518" width="507pt" height="185.518pt">
<line x1="579" y1="249" x2="579" y2="308" stroke-width="5" stroke="rgb(131,103,199)" stroke-linejoin="miter" stroke-linecap="square" stroke-miterlimit="3"/>
<circle cx="579" cy="278.5" r="8" fill="rgb(131,103,199)"/>
<path d="M 572 308C555.719 308 542.5 294.781 542.5 278.5C542.5 262.219 555.719 249 572 249" fill="none" stroke-width="10" stroke="rgb(131,103,199)" stroke-linejoin="miter" stroke-linecap="square" stroke-miterlimit="3"/>
<path d="M 1010 308C1026.281 308 1039.5 321.219 1039.5 337.5C1039.5 353.781 1026.281 367 1010 367" fill="none" stroke-width="10" stroke="rgb(131,103,199)" stroke-linejoin="miter" stroke-linecap="square" stroke-miterlimit="3"/>
<path d="M 572 249L870 249" fill="none" stroke-width="10" stroke="rgb(131,103,199)" stroke-linejoin="miter" stroke-linecap="round" stroke-miterlimit="3"/>
<path d="M 711.333 367L711.333 367L1001.333 367" fill="none" stroke-width="10" stroke="rgb(131,103,199)" stroke-linejoin="miter" stroke-linecap="square" stroke-miterlimit="3"/>
<line x1="572" y1="308" x2="1009.896" y2="308" stroke-width="10" stroke="rgb(131,103,199)" stroke-linejoin="miter" stroke-linecap="round" stroke-miterlimit="3"/>
<path d="M 707.19 367 Q 684.838 366.762 681 351.48L681 382.52 Q 684.915 366.765 707.19 367Z" fill="rgb(131,103,199)" stroke-width="10" stroke="rgb(131,103,199)" stroke-linejoin="miter" stroke-linecap="square" stroke-miterlimit="3"/>
<path d="M 859.95 244C863.75 243.96 867.54 243.73 871.32 243.32C874.29 242.99 877.25 242.49 880.16 241.8C882.55 241.24 884.89 240.53 887.19 239.68C889.1 238.98 890.95 238.14 892.74 237.17C894.85 236.02 896.85 234.66 898.69 233.11C900.36 231.72 901.87 230.15 903.2 228.43C904.54 226.69 905.69 224.81 906.63 222.82C907.7 220.56 908.54 218.2 909.15 215.78C909.45 214.6 910.17 213.57 911.17 212.88C912.18 212.19 913.4 211.89 914.61 212.04C915.82 212.19 916.94 212.77 917.75 213.69C918.55 214.6 919 215.78 919 217L919 281C919 282.22 918.55 283.4 917.74 284.31C916.94 285.23 915.82 285.81 914.61 285.96C913.4 286.11 912.17 285.81 911.17 285.12C910.16 284.43 909.44 283.39 909.15 282.21C908.53 279.71 907.67 277.28 906.59 274.94C905.66 272.93 904.51 271.01 903.17 269.24C901.88 267.53 900.4 265.95 898.77 264.55C897.01 263.04 895.1 261.71 893.07 260.58C891.18 259.52 889.2 258.62 887.17 257.88C884.68 256.98 882.14 256.26 879.55 255.71C876.72 255.11 873.86 254.68 870.98 254.42C867.35 254.1 863.7 253.96 860.05 254C858.73 254.01 857.45 253.5 856.5 252.57C855.55 251.65 855.01 250.38 855 249.05C854.99 247.73 855.5 246.45 856.43 245.5C857.35 244.56 858.62 244.01 859.95 244ZM909 260.6C907.84 259.31 906.6 258.1 905.29 256.97C903.02 255.02 900.56 253.3 897.95 251.84C895.84 250.67 893.65 249.64 891.39 248.78C893.49 247.97 895.53 247.03 897.51 245.95C900.21 244.49 902.76 242.75 905.11 240.78C906.49 239.63 907.79 238.38 909 237.06L909 260.6Z" fill-rule="evenodd" fill="rgb(131,103,199)"/>
<path d="M 883 248.13L913.031 229L914 273L883 248.13Z" fill="rgb(131,103,199)" stroke-width="1" stroke="rgb(131,103,199)" stroke-linejoin="miter" stroke-linecap="square" stroke-miterlimit="3"/>

<circle cx="760" cy="278.5" r="3.75" fill="rgb(131,103,199)"/>
<line x1="601" y1="249" x2="624" y2="308" stroke-width="4" stroke="rgb(131,103,199)" stroke-linejoin="miter" stroke-linecap="square" stroke-miterlimit="3"/>
<line x1="647" y1="249" x2="624" y2="308" stroke-width="4" stroke="rgb(131,103,199)" stroke-linejoin="miter" stroke-linecap="square" stroke-miterlimit="3"/>
<line x1="663" y1="249" x2="663" y2="308" stroke-width="4" stroke="rgb(131,103,199)" stroke-linejoin="miter" stroke-linecap="square" stroke-miterlimit="3"/>
<line x1="737" y1="249" x2="737" y2="308" stroke-width="4" stroke="rgb(131,103,199)" stroke-linejoin="miter" stroke-linecap="square" stroke-miterlimit="3"/>
<line x1="685" y1="249" x2="685" y2="308" stroke-width="4" stroke="rgb(131,103,199)" stroke-linejoin="miter" stroke-linecap="square" stroke-miterlimit="3"/>
<path d="M 685 249C701.281 249 714.5 262.219 714.5 278.5C714.5 294.781 701.281 308 685 308" fill="none" stroke-width="4" stroke="rgb(131,103,199)" stroke-linejoin="miter" stroke-linecap="square" stroke-miterlimit="3"/>
<path d="M 804.5 308C788.219 308 775 294.781 775 278.5C775 262.219 788.219 249 804.5 249C820.781 249 834 262.219 834 278.5C834 294.781 820.781 308 804.5 308Z" fill="none" stroke-width="4" stroke="rgb(131,103,199)" stroke-linejoin="miter" stroke-linecap="square" stroke-miterlimit="3"/>
<line x1="737" y1="278.5" x2="760" y2="278.5" stroke-width="4" stroke="rgb(131,103,199)" stroke-linejoin="miter" stroke-linecap="square" stroke-miterlimit="3"/>
<path d="M 804.5 367C788.219 367 775 353.781 775 337.5C775 321.219 788.219 308 804.5 308C820.781 308 834 321.219 834 337.5C834 353.781 820.781 367 804.5 367Z" fill="none" stroke-width="4" stroke="rgb(131,103,199)" stroke-linejoin="miter" stroke-linecap="square" stroke-miterlimit="3"/>
<path d="M 974.373 336.677C967.857 335.171 963 329.405 963 322.53C963 314.511 969.609 308 977.75 308C980.916 308 983.85 308.985 986.254 310.66" fill="none" stroke-width="4" stroke="rgb(131,103,199)" stroke-linejoin="miter" stroke-linecap="square" stroke-miterlimit="3"/>
<path d="M 975.04 337C981.383 338.922 986 344.764 986 351.665C986 360.128 979.055 367 970.5 367C966.755 367 963.319 365.683 960.639 363.493" fill="none" stroke-width="4" stroke="rgb(131,103,199)" stroke-linejoin="miter" stroke-linecap="square" stroke-miterlimit="3"/>
<line x1="737" y1="308" x2="737" y2="367" stroke-width="4" stroke="rgb(131,103,199)" stroke-linejoin="miter" stroke-linecap="square" stroke-miterlimit="3"/>
<path d="M 737 308C747.486 308 756 314.609 756 322.75C756 330.891 747.486 337.5 737 337.5" fill="none" stroke-width="4" stroke="rgb(131,103,199)" stroke-linejoin="miter" stroke-linecap="square" stroke-miterlimit="3"/>
<path d="M 737 337.5C747.486 337.5 756 344.109 756 352.25C756 360.391 747.486 367 737 367" fill="none" stroke-width="4" stroke="rgb(131,103,199)" stroke-linejoin="miter" stroke-linecap="square" stroke-miterlimit="3"/>
<line x1="855" y1="367" x2="855" y2="308" stroke-width="4" stroke="rgb(131,103,199)" stroke-linejoin="miter" stroke-linecap="square" stroke-miterlimit="3"/>
<line x1="901" y1="367" x2="901" y2="308" stroke-width="4" stroke="rgb(131,103,199)" stroke-linejoin="miter" stroke-linecap="square" stroke-miterlimit="3"/>
<line x1="855" y1="308" x2="901" y2="367" stroke-width="4" stroke="rgb(131,103,199)" stroke-linejoin="miter" stroke-linecap="square" stroke-miterlimit="3"/>
<circle cx="946" cy="337.5" r="3.75" fill="rgb(131,103,199)"/>
<line x1="923" y1="308" x2="923" y2="367" stroke-width="4" stroke="rgb(131,103,199)" stroke-linejoin="miter" stroke-linecap="square" stroke-miterlimit="3"/>
<line x1="923" y1="337.5" x2="946" y2="337.5" stroke-width="4" stroke="rgb(131,103,199)" stroke-linejoin="miter" stroke-linecap="square" stroke-miterlimit="3"/>
</svg>